<svg xmlns="http://www.w3.org/2000/svg" viewBox="0 0 432 432">
  <!-- Jeff's mark as the tab bug, teal (his ask, Aug 2026). The style block
       lets one file answer both themes: SVG favicons honour
       prefers-color-scheme, so the paper square and the ink swap together
       rather than leaving a light tile stranded in a dark browser chrome. -->
  <style>
    :root{--bg:#F2EEE4;--fg:#3D7C80}
    @media (prefers-color-scheme:dark){:root{--bg:#16150F;--fg:#5FA9AE}}
  </style>
  <rect width="432" height="432" fill="var(--bg)"/>
  <g transform="translate(0,46)" fill="var(--fg)" color="var(--fg)">
<g>
	<g>
		<path fill-rule="evenodd" clip-rule="evenodd" fill="currentColor" d="M252,65.8c1.9-0.2,4.3-0.6,5.7,0c0.5,0.2,1,0.5,1.6,0.8
			c15,6.9-1,39.5-13,26.4C239.1,85.1,243.9,66.8,252,65.8z"/>
		<path fill-rule="evenodd" clip-rule="evenodd" fill="currentColor" d="M0,200.3c-0.5-4.8-0.5-9.7,0-14.5c1.9-17.5,13-38.6,28.5-41.7
			c8.8-1.7,30.4,3.9,9.3,12.7C-3.3,173.9,23.6,225,47,205.5c20.2-16.9,33.7-80.5,19-112.2c-6.1-13-21.1,6.8-24.1,1.2
			C32.7,77.1,52.7,67,67,69.7c27.2,5.2,43.3,42.4,54.1,65.3c0.8-18.8,11.7-53.2,27.1-61.7c17.2-9.5,48.3,29.1,25.4,33.5
			c-36.9,7.2-43.2,75.4-34.7,96.7c3.8,9.6,16.8,21.7,6.6,23.8c-21.5,4.4-28.5-35.9-34.2-57.9c-6.4-24.8-12.2-41.5-23.1-55.8
			c-0.4,24.3,8.5,115.7-58.2,113.2C12.5,226.2,2.1,219.7,0,200.3z"/>
		<path fill-rule="evenodd" clip-rule="evenodd" fill="currentColor" d="M429.1,182.5c2.1,2.2,0.7,6.1,0,9.1
			c-5.6,24.8-56.5,56.8-67.4,17.5c-11.4,16.8-42.4,29.6-47,0c-5.8,22.1-43.6,25-48.4,0c-2.8,7.3-10.7,16.3-19.9,18.1
			c-13.5,2.7-23-4-27.1-18.1c-14.3,19.9-49.2,26.3-59.8,3.6c-13.4-28.3,2-71.5,18.5-85.2c14.4-12,38.1-12.4,41.3,9.1
			c4.4,28.8-15.2,43-28.5,50.8c-6,3.5-15,3.1-16.1,10.9c-2,13.6,12,12.1,19,10.9c10.4-1.8,26.9-18.3,31.3-27.2
			c8.7-17.3,7-43,15.2-59.8c2-4.2,8.5-3.1,10.4,0c16.4,25.9-27,62.3-10,85.2c8.6,11.6,17.5-9.1,24.2-16.3
			c3.5-46.4,25.5-78.6,65.5-72.5c3.4-21.9,20-66.3,32.8-43.5c5.6,10-12.5,43.4-19.9,65.3c-6.3,18.5-23.6,62.2-7.1,68.9
			c20.6,8.4,24.8-39.7,34.2-63.5c-2.2-7.5-20.7-8.5-11-17.5c3.5-3.2,13.3,2.8,16.7-0.6c6.6-19.3,11.1-47.5,31.3-43.5
			c4.4,0.9,1,15.9-1.4,23.6c-2.1,6.6-9.9,18.6-5.7,19.9c10.1-0.2,19.5-16.8,24.2-10.9c10.6,13.4-18,26.6-35.6,29
			c-7,15.2-20.3,39.5-5.6,56.6c15.7,18.3,25.6-8,40.2-21C426.4,178.5,427.1,180.5,429.1,182.5z M284.8,207.3
			c23,17.4,32.5-40,40-71.7C291.5,133.6,264.9,192.2,284.8,207.3z M173.3,177.2c15.8,7.9,38.9-16.2,26.4-34.1
			C187.6,125.8,158,169.6,173.3,177.2z"/>
	</g>
	<path fill="currentColor" d="M102.3,285.3c-1.3,0-2.5-0.5-3.4-1.4C84.4,269,73,252,64.8,233c-1.1-2.4,0.1-5.3,2.5-6.3
		c2.4-1.1,5.3,0.1,6.3,2.5c7.7,17.8,18.5,33.9,32.1,47.9c1.9,1.9,1.8,5-0.1,6.8C104.8,284.8,103.6,285.3,102.3,285.3z"/>
	<path fill="currentColor" d="M336.8,282.6c-1.2,0-2.4-0.4-3.3-1.3c-1.9-1.8-2-4.9-0.2-6.8c10.8-11.5,19.7-24.5,26.6-38.7
		c1.2-2.4,4-3.4,6.4-2.2c2.4,1.2,3.4,4.1,2.2,6.4c-7.3,15-16.8,28.8-28.3,41.1C339.3,282.1,338.1,282.6,336.8,282.6z"/>
	<path fill="currentColor" d="M98.3,62.7c-1.2,0-2.3-0.4-3.2-1.3c-2-1.8-2.1-4.8-0.3-6.8C126.3,19.9,171.3,0,218.3,0
		c46.2,0,90.8,19.4,122.3,53.2c1.8,2,1.7,5-0.2,6.8c-2,1.8-5,1.7-6.8-0.2C303.8,27.9,261.8,9.6,218.3,9.6
		c-44.2,0-86.7,18.8-116.4,51.5C100.9,62.2,99.6,62.7,98.3,62.7z"/>
	<g>
		<g>
			<path fill="currentColor" d="M144.8,287.1l-22.3,19.1c-0.7,0.6-1.6,0.7-2.3,0.2c-0.7-0.5-1-1.4-0.8-2.2l10.8-34
				c0.1-0.2,0.2-0.4,0.3-0.6c0.6-0.9,1.7-1.1,2.6-0.5c0.9,0.6,1,1.6,0.8,2.2l-9.1,28.4l22.5-19.5c0.7-0.6,1.6-0.6,2.3-0.1
				c0.7,0.5,1.1,1.3,0.8,2.2l-9.3,28.3l22.6-19.4c0.5-0.4,1.4-0.7,2.3-0.1c0.9,0.6,1.1,1.7,0.5,2.6c-0.1,0.2-0.3,0.3-0.5,0.5
				l-27.1,23.1c-0.6,0.6-1.6,0.6-2.3,0.1c-0.7-0.5-1-1.4-0.7-2.2L144.8,287.1z"/>
			<path fill="currentColor" d="M137.7,318.8c-0.6,0-1.2-0.2-1.7-0.5c-1.2-0.8-1.7-2.3-1.2-3.6l7.6-23.8l-19,16.3c-1,0.9-2.6,1.1-3.8,0.3
				c-1.2-0.8-1.7-2.2-1.2-3.6l10.8-34c0.1-0.3,0.2-0.6,0.4-0.9c0.9-1.3,2.9-1.8,4.3-0.8c1.4,0.9,1.6,2.5,1.2,3.6l-7.8,24.3
				l19.2-16.7c1-0.9,2.6-1,3.7-0.2c1.2,0.8,1.7,2.2,1.2,3.6l-7.9,24.2l19.3-16.6c1-0.9,2.6-1,3.7-0.2c0.7,0.5,1.2,1.2,1.3,2
				c0.2,0.8,0,1.6-0.5,2.3c-0.2,0.3-0.4,0.5-0.6,0.7L139.7,318C139.1,318.5,138.4,318.8,137.7,318.8z M147.3,283.4l-10.3,32
				c-0.1,0.4,0,0.7,0.2,0.8c0.2,0.2,0.6,0.1,0.8,0l27.2-23.1c0.1-0.1,0.2-0.2,0.2-0.2c0.1-0.2,0.1-0.4,0.1-0.5
				c0-0.1-0.1-0.3-0.3-0.4c-0.3-0.2-0.7-0.1-0.8,0l-25.9,22.2l10.6-32.4c0.2-0.5-0.2-0.7-0.3-0.8c-0.3-0.2-0.6-0.2-0.8,0l-25.7,22.4
				l10.4-32.5c0,0,0.2-0.5-0.3-0.8c-0.3-0.2-0.7-0.1-0.9,0.2c0,0.1-0.1,0.2-0.1,0.3l-10.8,34c-0.1,0.3,0,0.6,0.3,0.8
				c0.3,0.2,0.7,0.1,0.8-0.1L147.3,283.4z"/>
		</g>
		<g>
			<path fill="currentColor" d="M168.6,329.2c-0.3,1-1.3,1.6-2.3,1.3c-1-0.3-1.6-1.3-1.3-2.3l9-32.8c0.3-1,1.3-1.6,2.3-1.3l10.6,2.9
				c5.9,1.6,9,7.3,7.4,13c-1.5,5.5-6.5,8.9-12.4,7.6l6.2,15.7c0.2,0.4,0.2,0.9,0.1,1.2c-0.3,1-1.3,1.6-2.3,1.3
				c-0.5-0.1-1.1-0.5-1.3-1.3l-6.7-18.1l-5.4-1.5L168.6,329.2z M173.4,311.8l8.9,2.4c3.7,1,7.3-1.3,8.3-5.1c1.1-4-0.8-7.6-4.7-8.7
				l-8.8-2.4L173.4,311.8z"/>
			<path fill="currentColor" d="M186.5,337.2c-0.3,0-0.6,0-0.8-0.1c-1-0.3-1.8-1-2.1-2.1l-6.5-17.5l-3.6-1l-3.6,13
				c-0.4,1.6-2.2,2.6-3.8,2.2c-0.8-0.2-1.5-0.7-1.9-1.5c-0.4-0.7-0.5-1.5-0.3-2.3l9-32.8c0.4-1.6,2.2-2.6,3.8-2.2l10.6,2.9
				c6.5,1.8,10,8,8.3,14.5c-1.5,5.5-6.1,9-11.7,8.7l5.5,13.8c0.3,0.6,0.3,1.3,0.1,2C189.1,336.3,187.8,337.2,186.5,337.2z
				 M171.7,313.6l7.2,2l6.9,18.7c0.1,0.3,0.3,0.5,0.5,0.5c0.4,0.1,0.7-0.1,0.8-0.5c0-0.2,0-0.3,0-0.4L180,316l2.2,0.5
				c0.7,0.2,1.5,0.3,2.2,0.3c4.1,0,7.6-2.7,8.7-7c1.4-5.2-1.4-10.1-6.6-11.5l-10.6-2.9c-0.4-0.1-0.7,0.1-0.8,0.5l-9,32.8
				c-0.1,0.2,0,0.4,0.1,0.5c0.1,0.2,0.2,0.3,0.4,0.3c0.4,0.1,0.7-0.1,0.8-0.5L171.7,313.6z M184.1,315.7
				C184.1,315.7,184.1,315.7,184.1,315.7c-0.7,0-1.4-0.1-2.1-0.3l-10.1-2.8l4.4-16.1l9.9,2.7c2.1,0.6,3.8,1.9,4.8,3.7
				c1.1,1.9,1.3,4.2,0.7,6.5C190.8,313.1,187.7,315.7,184.1,315.7z M174.9,310.9l7.8,2.1c3,0.8,5.9-1.1,6.8-4.3
				c0.5-1.7,0.3-3.3-0.5-4.7c-0.7-1.3-1.9-2.1-3.4-2.5l-7.6-2.1L174.9,310.9z"/>
		</g>
		<g>
			<path fill="currentColor" d="M208.1,336.5c-0.1,1-1,1.8-2,1.7c-1-0.1-1.8-1-1.7-2l2.5-34.4c0.1-1,1-1.8,2-1.7c1,0.1,1.8,1,1.7,2
				L208.1,336.5z"/>
			<path fill="currentColor" d="M206.2,339.5l-0.2,0c-1.7-0.1-3-1.6-2.9-3.3l2.5-34.4c0.1-1.6,1.5-2.9,3.1-2.9l0.2,0
				c0.8,0.1,1.6,0.4,2.1,1.1c0.5,0.6,0.8,1.4,0.7,2.2l-2.5,34.4C209.2,338.2,207.8,339.5,206.2,339.5z M208.8,301.4
				c-0.4,0-0.7,0.3-0.7,0.6l-2.5,34.4c0,0.3,0.2,0.7,0.6,0.7l0,1.2v-1.2c0.3,0,0.7-0.3,0.7-0.6l2.5-34.4c0-0.2-0.1-0.3-0.2-0.5
				C209.2,301.5,209,301.4,208.8,301.4C208.8,301.4,208.8,301.4,208.8,301.4z"/>
		</g>
		<g>
			<path fill="currentColor" d="M221.7,305c-1,0.1-1.9-0.6-2-1.5c-0.1-1,0.6-1.9,1.5-2l23.4-2.9c1-0.1,1.9,0.6,2,1.5c0.1,1-0.6,1.9-1.5,2
				l-9.8,1.2l4,32.1c0.1,1-0.6,2-1.6,2.1c-1,0.1-2-0.6-2.1-1.6l-4-32.1L221.7,305z"/>
			<path fill="currentColor" d="M237.4,338.7c-1.6,0-2.9-1.2-3.1-2.7l-3.8-30.9l-8.7,1.1c-1.7,0.2-3.1-1-3.3-2.6
				c-0.2-1.7,0.9-3.1,2.6-3.3l23.4-2.9c1.7-0.2,3.1,1,3.3,2.6c0.2,1.7-0.9,3.1-2.6,3.3l-8.6,1.1l3.8,30.9c0.2,1.7-1,3.2-2.7,3.4
				C237.6,338.7,237.5,338.7,237.4,338.7z M232.6,302.4l4.1,33.3c0,0.3,0.3,0.6,0.7,0.6l0.1,0c0.4,0,0.6-0.4,0.6-0.8l-4.1-33.3
				l11-1.4c0.3,0,0.5-0.3,0.5-0.6c0-0.3-0.3-0.5-0.6-0.5l-23.5,2.9c-0.3,0-0.5,0.3-0.5,0.6c0,0.3,0.3,0.5,0.6,0.5L232.6,302.4z"/>
		</g>
		<g>
			<path fill="currentColor" d="M269.7,329.8c-1,0.4-2.1-0.1-2.5-1.1l-12.4-31.2c-0.4-1,0.1-2.1,1.1-2.5l16.5-6.6c0.9-0.4,1.9,0.1,2.2,1
				c0.3,0.9-0.1,1.9-1,2.2l-14.8,5.9l5,12.4l11.3-4.5c0.9-0.3,1.9,0.1,2.2,1c0.3,0.9-0.1,1.9-1,2.2l-11.3,4.5l5.1,12.7l15.4-6.1
				c0.9-0.3,1.9,0.1,2.2,1c0.3,0.9-0.1,1.9-1,2.2L269.7,329.8z"/>
			<path fill="currentColor" d="M269,331.2c-1.3,0-2.4-0.8-2.9-1.9L253.7,298c-0.6-1.6,0.1-3.4,1.7-4l16.5-6.6c1.4-0.6,3.2,0.2,3.8,1.6
				c0.6,1.5-0.1,3.2-1.6,3.8l-13.7,5.5l4.1,10.2l10.2-4.1c1.5-0.6,3.2,0.2,3.8,1.6c0.6,1.5-0.1,3.2-1.6,3.8l-10.2,4.1l4.2,10.4
				l14.2-5.7c1.5-0.6,3.2,0.2,3.8,1.6c0.6,1.5-0.1,3.2-1.6,3.8l-17.1,6.8C269.8,331.1,269.4,331.2,269,331.2z M273,289.6
				c-0.1,0-0.1,0-0.2,0l-16.5,6.6c-0.4,0.1-0.5,0.5-0.4,0.9l12.4,31.2c0.1,0.4,0.5,0.5,0.9,0.4l17.1-6.8c0.3-0.1,0.4-0.4,0.3-0.7
				c-0.1-0.3-0.4-0.4-0.7-0.3l-16.5,6.6l-6-14.9l12.5-5c0.3-0.1,0.4-0.4,0.3-0.7c-0.1-0.3-0.4-0.4-0.7-0.3l-12.5,5l-5.9-14.7
				l15.9-6.3c0.3-0.1,0.4-0.4,0.3-0.7C273.4,289.7,273.2,289.6,273,289.6z"/>
		</g>
		<g>
			<path fill="currentColor" d="M306.6,309.9c0.6,0.8,0.4,2-0.4,2.6c-0.9,0.6-2,0.4-2.6-0.4l-20.1-27.4c-0.6-0.8-0.4-2,0.4-2.6l8.9-6.5
				c5-3.6,11.3-2.5,14.8,2.3c3.4,4.6,2.9,10.6-1.7,14.4l16.2,4.9c0.4,0.1,0.8,0.4,1,0.7c0.6,0.8,0.4,2-0.4,2.6
				c-0.4,0.3-1.1,0.5-1.8,0.2l-18.4-6l-4.5,3.3L306.6,309.9z M295.9,295.2l7.5-5.5c3.1-2.3,3.5-6.5,1.1-9.7
				c-2.4-3.3-6.5-4.1-9.7-1.7l-7.3,5.4L295.9,295.2z"/>
			<path fill="currentColor" d="M305.1,314.1c-1,0-1.9-0.5-2.5-1.3l-20.2-27.4c-0.5-0.7-0.7-1.5-0.6-2.3c0.1-0.8,0.6-1.5,1.2-2l8.9-6.5
				c2.1-1.6,4.6-2.4,7.1-2.4c3.7,0,7.1,1.8,9.4,4.9c3.4,4.7,3.2,10.5-0.4,14.6l14.2,4.3c0.6,0.1,1.2,0.6,1.6,1.2
				c0.5,0.7,0.7,1.5,0.6,2.3c-0.1,0.8-0.6,1.5-1.2,2c-0.8,0.6-1.9,0.8-2.9,0.4l-17.7-5.8l-3,2.2l8,10.9c0.5,0.7,0.7,1.5,0.6,2.3
				c-0.1,0.8-0.6,1.5-1.2,2C306.4,313.9,305.8,314.1,305.1,314.1z M299.1,274.6c-2,0-3.9,0.7-5.6,1.9l-8.9,6.5
				c-0.1,0.1-0.2,0.3-0.3,0.4c0,0.2,0,0.4,0.1,0.5l20.2,27.4c0.2,0.3,0.6,0.4,1,0.1c0.1-0.1,0.2-0.3,0.3-0.4c0-0.1,0-0.3-0.1-0.5
				l-9.4-12.8l6-4.4l19,6.2c0.4,0.1,0.5,0.1,0.7-0.1c0.2-0.1,0.3-0.3,0.3-0.4c0-0.2,0-0.4-0.1-0.5c-0.1-0.1-0.2-0.2-0.3-0.3
				l-18.4-5.6l1.8-1.4c4-3.3,4.6-8.5,1.5-12.8C304.7,276,302,274.6,299.1,274.6z M295.6,296.9l-9.9-13.5l8.3-6.1
				c1.4-1,3.1-1.6,4.7-1.6c2.6,0,5,1.3,6.7,3.6c2.8,3.8,2.2,8.7-1.4,11.4L295.6,296.9z M289.1,284l7.1,9.6l6.5-4.8
				c2.5-1.8,2.9-5.3,0.9-8c-2-2.7-5.5-3.4-8-1.5L289.1,284z"/>
		</g>
	</g>
</g>
  </g>
</svg>
